<svg width="193" height="194" viewBox="0 0 193 194" fill="none" xmlns="http://www.w3.org/2000/svg">
<rect y="0.998535" width="193" height="193" fill="#D8D8D8"/>
<path fill-rule="evenodd" clip-rule="evenodd" d="M87.3333 89.1319C87.3333 92.0027 85.0042 94.3319 82.1333 94.3319C79.2625 94.3319 76.9333 92.0027 76.9333 89.1319C76.9333 86.261 79.2625 83.9319 82.1333 83.9319C85.0042 83.9319 87.3333 86.261 87.3333 89.1319ZM115.067 99.5319V111.665H76.9333V106.465L85.6 97.7985L89.9333 102.132L103.8 88.2652L115.067 99.5319ZM117.667 80.4652H74.3333C73.8729 80.4652 73.4667 80.8715 73.4667 81.3319V114.265C73.4667 114.726 73.8729 115.132 74.3333 115.132H117.667C118.127 115.132 118.533 114.726 118.533 114.265V81.3319C118.533 80.8715 118.127 80.4652 117.667 80.4652ZM122 81.3319V114.265C122 116.649 120.05 118.599 117.667 118.599H74.3333C71.95 118.599 70 116.649 70 114.265V81.3319C70 78.9485 71.95 76.9985 74.3333 76.9985H117.667C120.05 76.9985 122 78.9485 122 81.3319Z" fill="black"/>
</svg>
